<svg width="250" height="100" viewBox="0 0 250 100" fill="none" xmlns="http://www.w3.org/2000/svg">
<path d="M18.792 45.535H34.357V29.53H45.137V71H34.357V53.895H18.792V71H8.01199V29.53H18.792V45.535ZM62.1324 56.81C62.1324 57.7267 62.2974 58.5883 62.6274 59.395C62.9574 60.165 63.3974 60.8433 63.9474 61.43C64.5341 62.0167 65.2124 62.475 65.9824 62.805C66.7891 63.135 67.6508 63.3 68.5674 63.3C69.4474 63.3 70.2724 63.135 71.0424 62.805C71.8491 62.475 72.5274 62.0167 73.0774 61.43C73.6641 60.8433 74.1224 60.165 74.4524 59.395C74.8191 58.625 75.0024 57.8 75.0024 56.92C75.0024 56.04 74.8191 55.215 74.4524 54.445C74.1224 53.6383 73.6641 52.9417 73.0774 52.355C72.5274 51.7683 71.8491 51.31 71.0424 50.98C70.2724 50.65 69.4474 50.485 68.5674 50.485C67.6508 50.485 66.7891 50.65 65.9824 50.98C65.2124 51.31 64.5341 51.7683 63.9474 52.355C63.3974 52.9417 62.9574 53.62 62.6274 54.39C62.2974 55.1233 62.1324 55.93 62.1324 56.81ZM74.6724 42.785H84.6824V71H74.6724V67.865C72.5458 70.5417 69.6674 71.88 66.0374 71.88C63.9841 71.88 62.0958 71.5133 60.3724 70.78C58.6491 70.01 57.1458 68.9467 55.8624 67.59C54.5791 66.2333 53.5708 64.6383 52.8374 62.805C52.1408 60.9717 51.7924 58.9733 51.7924 56.81C51.7924 54.7933 52.1408 52.8867 52.8374 51.09C53.5341 49.2567 54.5058 47.6617 55.7524 46.305C56.9991 44.9483 58.4841 43.885 60.2074 43.115C61.9308 42.3083 63.8374 41.905 65.9274 41.905C69.4474 41.905 72.3624 43.1333 74.6724 45.59V42.785ZM112.742 51.915C111.019 50.7417 109.277 50.155 107.517 50.155C106.564 50.155 105.665 50.32 104.822 50.65C104.015 50.98 103.3 51.4567 102.677 52.08C102.054 52.6667 101.559 53.3817 101.192 54.225C100.862 55.0317 100.697 55.9483 100.697 56.975C100.697 57.965 100.862 58.8817 101.192 59.725C101.559 60.5317 102.035 61.2467 102.622 61.87C103.245 62.4567 103.979 62.915 104.822 63.245C105.665 63.575 106.564 63.74 107.517 63.74C109.387 63.74 111.129 63.0983 112.742 61.815V70.285C110.285 71.3483 107.957 71.88 105.757 71.88C103.704 71.88 101.742 71.5317 99.8719 70.835C98.0385 70.1383 96.4069 69.1483 94.9769 67.865C93.5835 66.545 92.4652 64.9867 91.6219 63.19C90.7785 61.3567 90.3569 59.3217 90.3569 57.085C90.3569 54.8483 90.7602 52.8133 91.5669 50.98C92.3735 49.11 93.4735 47.515 94.8669 46.195C96.2602 44.8383 97.9102 43.7933 99.8169 43.06C101.76 42.29 103.832 41.905 106.032 41.905C108.452 41.905 110.689 42.4183 112.742 43.445V51.915ZM129.771 25.35V52.96L140.221 42.785H153.861L139.726 55.82L154.686 71H140.716L129.771 59.505V71H119.816V25.35H129.771ZM188.626 29.53V52.08C188.626 53.29 188.663 54.5367 188.736 55.82C188.846 57.0667 189.121 58.2033 189.561 59.23C190.038 60.2567 190.771 61.1 191.761 61.76C192.751 62.3833 194.144 62.695 195.941 62.695C197.738 62.695 199.113 62.3833 200.066 61.76C201.056 61.1 201.789 60.2567 202.266 59.23C202.743 58.2033 203.018 57.0667 203.091 55.82C203.201 54.5367 203.256 53.29 203.256 52.08V29.53H213.981V53.565C213.981 60.0183 212.496 64.73 209.526 67.7C206.593 70.67 202.064 72.155 195.941 72.155C189.818 72.155 185.271 70.67 182.301 67.7C179.331 64.73 177.846 60.0183 177.846 53.565V29.53H188.626ZM240.46 50.045C238.626 49.0917 236.83 48.615 235.07 48.615C234.153 48.615 233.401 48.7983 232.815 49.165C232.265 49.5317 231.99 50.0267 231.99 50.65C231.99 50.98 232.026 51.255 232.1 51.475C232.21 51.6583 232.411 51.8417 232.705 52.025C233.035 52.2083 233.493 52.3733 234.08 52.52C234.703 52.6667 235.51 52.85 236.5 53.07C239.25 53.62 241.303 54.61 242.66 56.04C244.016 57.4333 244.695 59.23 244.695 61.43C244.695 63.08 244.365 64.565 243.705 65.885C243.045 67.205 242.128 68.3233 240.955 69.24C239.781 70.12 238.37 70.7983 236.72 71.275C235.07 71.7883 233.255 72.045 231.275 72.045C227.461 72.045 223.703 70.9633 220 68.8L223.63 61.76C226.416 63.6667 229.056 64.62 231.55 64.62C232.466 64.62 233.218 64.4183 233.805 64.015C234.391 63.6117 234.685 63.0983 234.685 62.475C234.685 62.1083 234.63 61.815 234.52 61.595C234.446 61.3383 234.263 61.1183 233.97 60.935C233.676 60.715 233.236 60.5317 232.65 60.385C232.1 60.2017 231.366 60.0183 230.45 59.835C227.37 59.2117 225.206 58.295 223.96 57.085C222.75 55.8383 222.145 54.1333 222.145 51.97C222.145 50.3933 222.438 48.9817 223.025 47.735C223.611 46.4517 224.455 45.37 225.555 44.49C226.655 43.61 227.975 42.9317 229.515 42.455C231.091 41.9783 232.833 41.74 234.74 41.74C237.856 41.74 240.881 42.345 243.815 43.555L240.46 50.045Z" fill="#2197F4"/>
</svg>
